<?xml version="1.0" encoding="UTF-8" standalone="no"?>
<svg
   xmlns:dc="http://purl.org/dc/elements/1.1/"
   xmlns:cc="http://creativecommons.org/ns#"
   xmlns:rdf="http://www.w3.org/1999/02/22-rdf-syntax-ns#"
   xmlns:svg="http://www.w3.org/2000/svg"
   xmlns="http://www.w3.org/2000/svg"
   xmlns:sodipodi="http://sodipodi.sourceforge.net/DTD/sodipodi-0.dtd"
   xmlns:inkscape="http://www.inkscape.org/namespaces/inkscape"
   width="24"
   height="24"
   viewBox="0 0 6.3500003 6.3499999"
   version="1.1"
   id="svg1180"
   inkscape:version="1.0.2 (e86c870879, 2021-01-15, custom)"
   sodipodi:docname="favicon.svg">
  <defs
     id="defs1174">
    <marker
       style="overflow:visible"
       id="StopS"
       refX="0"
       refY="0"
       orient="auto"
       inkscape:stockid="StopS"
       inkscape:isstock="true">
      <path
         transform="scale(0.2)"
         style="fill:none;fill-opacity:0.75;fill-rule:evenodd;stroke:#000000;stroke-width:1pt;stroke-opacity:1"
         d="M 0,5.65 V -5.65"
         id="path1494" />
    </marker>
    <marker
       style="overflow:visible"
       id="Arrow2Mend"
       refX="0"
       refY="0"
       orient="auto"
       inkscape:stockid="Arrow2Mend"
       inkscape:isstock="true">
      <path
         transform="scale(-0.6)"
         d="M 8.7185878,4.0337352 -2.2072895,0.01601326 8.7185884,-4.0017078 c -1.7454984,2.3720609 -1.7354408,5.6174519 -6e-7,8.035443 z"
         style="fill:#000000;fill-opacity:1;fill-rule:evenodd;stroke:#000000;stroke-width:0.625;stroke-linejoin:round;stroke-opacity:1"
         id="path1346" />
    </marker>
    <marker
       style="overflow:visible"
       id="DotM"
       refX="0"
       refY="0"
       orient="auto"
       inkscape:stockid="DotM"
       inkscape:isstock="true">
      <path
         transform="matrix(0.4,0,0,0.4,2.96,0.4)"
         style="fill:#000000;fill-opacity:1;fill-rule:evenodd;stroke:#000000;stroke-width:1pt;stroke-opacity:1"
         d="m -2.5,-1 c 0,2.76 -2.24,5 -5,5 -2.76,0 -5,-2.24 -5,-5 0,-2.76 2.24,-5 5,-5 2.76,0 5,2.24 5,5 z"
         id="path1383" />
    </marker>
    <marker
       style="overflow:visible"
       id="EmptyDiamondSstart"
       refX="0"
       refY="0"
       orient="auto"
       inkscape:stockid="EmptyDiamondSstart"
       inkscape:isstock="true">
      <path
         transform="matrix(0.2,0,0,0.2,1.2,0)"
         style="fill:#ffffff;fill-rule:evenodd;stroke:#000000;stroke-width:1pt;stroke-opacity:1"
         d="M 0,-7.0710768 -7.0710894,0 0,7.0710589 7.0710462,0 Z"
         id="path1440" />
    </marker>
    <marker
       style="overflow:visible"
       id="EmptyDiamondLstart"
       refX="0"
       refY="0"
       orient="auto"
       inkscape:stockid="EmptyDiamondLstart"
       inkscape:isstock="true">
      <path
         transform="matrix(0.8,0,0,0.8,5.6,0)"
         style="fill:#ffffff;fill-rule:evenodd;stroke:#000000;stroke-width:1pt;stroke-opacity:1"
         d="M 0,-7.0710768 -7.0710894,0 0,7.0710589 7.0710462,0 Z"
         id="path1434" />
    </marker>
    <marker
       style="overflow:visible"
       id="Arrow1Mend"
       refX="0"
       refY="0"
       orient="auto"
       inkscape:stockid="Arrow1Mend"
       inkscape:isstock="true">
      <path
         transform="matrix(-0.4,0,0,-0.4,-4,0)"
         style="fill:#000000;fill-opacity:1;fill-rule:evenodd;stroke:#000000;stroke-width:1pt;stroke-opacity:1"
         d="M 0,0 5,-5 -12.5,0 5,5 Z"
         id="path1328" />
    </marker>
    <marker
       style="overflow:visible"
       id="Arrow1Lend"
       refX="0"
       refY="0"
       orient="auto"
       inkscape:stockid="Arrow1Lend"
       inkscape:isstock="true">
      <path
         transform="matrix(-0.8,0,0,-0.8,-10,0)"
         style="fill:#000000;fill-opacity:1;fill-rule:evenodd;stroke:#000000;stroke-width:1pt;stroke-opacity:1"
         d="M 0,0 5,-5 -12.5,0 5,5 Z"
         id="path1322" />
    </marker>
    <inkscape:perspective
       sodipodi:type="inkscape:persp3d"
       inkscape:vp_x="3.0859251 : 7.5580866e-16 : 0"
       inkscape:vp_y="-1.0024249e-13 : 545.71271 : 0"
       inkscape:vp_z="4.3163497 : 5.4492243 : 1"
       inkscape:persp3d-origin="2.3766923 : 3.6219071 : 1"
       id="perspective1042" />
  </defs>
  <sodipodi:namedview
     id="base"
     pagecolor="#ffffff"
     bordercolor="#666666"
     borderopacity="1.0"
     inkscape:pageopacity="0.0"
     inkscape:pageshadow="2"
     inkscape:zoom="22.4"
     inkscape:cx="-1.6619065"
     inkscape:cy="10.591984"
     inkscape:document-units="mm"
     inkscape:current-layer="layer1"
     showgrid="false"
     fit-margin-top="0"
     fit-margin-left="0"
     fit-margin-right="0"
     fit-margin-bottom="0"
     inkscape:window-width="2560"
     inkscape:window-height="1017"
     inkscape:window-x="-8"
     inkscape:window-y="-8"
     inkscape:window-maximized="1"
     units="px"
     inkscape:document-rotation="0" />
  <metadata
     id="metadata1177">
    <rdf:RDF>
      <cc:Work
         rdf:about="">
        <dc:format>image/svg+xml</dc:format>
        <dc:type
           rdf:resource="http://purl.org/dc/dcmitype/StillImage" />
        <dc:title></dc:title>
      </cc:Work>
    </rdf:RDF>
  </metadata>
  <g
     inkscape:label="Layer 1"
     inkscape:groupmode="layer"
     id="layer1"
     transform="translate(-111.38685,-133.36966)">
    <flowRoot
       xml:space="preserve"
       id="flowRoot821"
       style="font-style:normal;font-weight:normal;font-size:40px;line-height:1.25;font-family:sans-serif;letter-spacing:0px;word-spacing:0px;fill:#000000;fill-opacity:1;stroke:none"
       transform="matrix(0.26458333,0,0,0.26458333,106.95109,131.54834)"><flowRegion
         id="flowRegion823"><rect
           id="rect825"
           width="107.85714"
           height="70"
           x="18.928572"
           y="-8.9821386" /></flowRegion><flowPara
         id="flowPara827" /></flowRoot>
    <g
       transform="matrix(0.01538545,0,0,0.01538545,107.99775,134.63979)"
       id="g1098"
       style="font-style:normal;font-weight:normal;font-size:40px;line-height:1.25;font-family:sans-serif;letter-spacing:0px;word-spacing:0px;fill:#000000;fill-opacity:1;stroke:none">
      <g
         id="g1096" />
    </g>
    <g
       transform="matrix(0.01538545,0,0,0.01538545,107.99775,134.63979)"
       id="g1104"
       style="font-style:normal;font-weight:normal;font-size:40px;line-height:1.25;font-family:sans-serif;letter-spacing:0px;word-spacing:0px;fill:#000000;fill-opacity:1;stroke:none">
      <g
         id="g1102" />
    </g>
    <g
       transform="matrix(0.01538545,0,0,0.01538545,107.99775,134.63979)"
       id="g1110"
       style="font-style:normal;font-weight:normal;font-size:40px;line-height:1.25;font-family:sans-serif;letter-spacing:0px;word-spacing:0px;fill:#000000;fill-opacity:1;stroke:none">
      <g
         id="g1108" />
    </g>
    <g
       transform="matrix(0.01538545,0,0,0.01538545,107.99775,134.63979)"
       id="g1116"
       style="font-style:normal;font-weight:normal;font-size:40px;line-height:1.25;font-family:sans-serif;letter-spacing:0px;word-spacing:0px;fill:#112b00;fill-opacity:1;stroke:none">
      <g
         id="g1114"
         style="fill:#112b00" />
    </g>
    <g
       transform="matrix(0.01538545,0,0,0.01538545,107.99775,134.63979)"
       id="g1122"
       style="font-style:normal;font-weight:normal;font-size:40px;line-height:1.25;font-family:sans-serif;letter-spacing:0px;word-spacing:0px;fill:#000000;fill-opacity:1;stroke:none">
      <g
         id="g1120" />
    </g>
    <g
       transform="matrix(0.01538545,0,0,0.01538545,107.99775,134.63979)"
       id="g1128"
       style="font-style:normal;font-weight:normal;font-size:40px;line-height:1.25;font-family:sans-serif;letter-spacing:0px;word-spacing:0px;fill:#000000;fill-opacity:1;stroke:none">
      <g
         id="g1126" />
    </g>
    <g
       transform="matrix(0.01538545,0,0,0.01538545,107.99775,134.63979)"
       id="g1134"
       style="font-style:normal;font-weight:normal;font-size:40px;line-height:1.25;font-family:sans-serif;letter-spacing:0px;word-spacing:0px;fill:#000000;fill-opacity:1;stroke:none">
      <g
         id="g1132" />
    </g>
    <g
       transform="matrix(0.01538545,0,0,0.01538545,107.99775,134.63979)"
       id="g1140"
       style="font-style:normal;font-weight:normal;font-size:40px;line-height:1.25;font-family:sans-serif;letter-spacing:0px;word-spacing:0px;fill:#000000;fill-opacity:1;stroke:none">
      <g
         id="g1138" />
    </g>
    <g
       transform="matrix(0.01538545,0,0,0.01538545,107.99775,134.63979)"
       id="g1146"
       style="font-style:normal;font-weight:normal;font-size:40px;line-height:1.25;font-family:sans-serif;letter-spacing:0px;word-spacing:0px;fill:#000000;fill-opacity:1;stroke:none">
      <g
         id="g1144" />
    </g>
    <g
       transform="matrix(0.01538545,0,0,0.01538545,107.99775,134.63979)"
       id="g1152"
       style="font-style:normal;font-weight:normal;font-size:40px;line-height:1.25;font-family:sans-serif;letter-spacing:0px;word-spacing:0px;fill:#000000;fill-opacity:1;stroke:none">
      <g
         id="g1150" />
    </g>
    <g
       transform="matrix(0.01538545,0,0,0.01538545,107.99775,134.63979)"
       id="g1158"
       style="font-style:normal;font-weight:normal;font-size:40px;line-height:1.25;font-family:sans-serif;letter-spacing:0px;word-spacing:0px;fill:#000000;fill-opacity:1;stroke:none">
      <g
         id="g1156" />
    </g>
    <g
       transform="matrix(0.01538545,0,0,0.01538545,107.99775,134.63979)"
       id="g1164"
       style="font-style:normal;font-weight:normal;font-size:40px;line-height:1.25;font-family:sans-serif;letter-spacing:0px;word-spacing:0px;fill:#000000;fill-opacity:1;stroke:none">
      <g
         id="g1162" />
    </g>
    <g
       transform="matrix(0.01538545,0,0,0.01538545,107.99775,134.63979)"
       id="g1170"
       style="font-style:normal;font-weight:normal;font-size:40px;line-height:1.25;font-family:sans-serif;letter-spacing:0px;word-spacing:0px;fill:#000000;fill-opacity:1;stroke:none">
      <g
         id="g1168" />
    </g>
    <circle
       style="fill:#00ffff;stroke-width:0.539751;stroke-linecap:round"
       id="path946-8"
       cx="114.56185"
       cy="136.54466"
       r="2.8575075" />
    <ellipse
       style="fill:#ccff00;stroke-width:0.539751;stroke-linecap:round"
       id="path946-8-8"
       cx="114.56185"
       cy="136.54466"
       rx="0.95250249"
       ry="0.95250243" />
    <path
       id="rect1943"
       style="fill:#333333;fill-opacity:1;stroke:none;stroke-width:0.539751;stroke-linecap:round;stroke-linejoin:miter;stroke-miterlimit:4;stroke-dasharray:none;stroke-dashoffset:0"
       d="m 114.56185,133.36965 c -1.75896,0 -3.175,1.41605 -3.175,3.17501 0,1.75896 1.41604,3.17501 3.175,3.17501 1.75896,0 3.175,-1.41605 3.175,-3.17501 0,-1.75896 -1.41604,-3.17501 -3.175,-3.17501 z m -0.49361,0.63252 h 6.2e-4 a 0.28575073,0.28575073 0 0 1 0.28774,0.22077 0.28575073,0.28575073 0 0 1 -0.21332,0.34415 l -0.0818,0.0186 -0.0936,0.0261 c -0.0931,0.0289 -0.18428,0.0656 -0.27223,0.10789 -0.0871,0.0419 -0.17297,0.0885 -0.25302,0.14263 -0.0687,0.0471 -0.13126,0.0951 -0.18479,0.14324 a 0.28575073,0.28575073 0 0 1 -0.40369,-0.0211 0.28575073,0.28575073 0 0 1 0.0236,-0.40307 c 0.0814,-0.0731 0.16331,-0.13468 0.24371,-0.18975 h 0.002 v -0.002 c 0.10299,-0.0696 0.21163,-0.13141 0.32371,-0.18541 0.11328,-0.0545 0.22906,-0.10091 0.34913,-0.13829 h 0.004 l 0.11723,-0.0355 0.0961,-0.0211 a 0.28575073,0.28575073 0 0 1 0.0532,-0.008 z m 1.12304,0.0416 a 0.28575073,0.28575073 0 0 1 0.0961,0.0123 l 0.0397,0.01 0.11471,0.0397 0.004,0.002 c 0.1176,0.0431 0.23239,0.0927 0.34231,0.15255 0.10898,0.0591 0.21267,0.12726 0.31191,0.20154 0.0989,0.074 0.19119,0.15398 0.27844,0.24122 l 0.002,0.002 0.008,0.008 a 0.28575073,0.28575073 0 0 1 -0.01,0.40308 0.28575073,0.28575073 0 0 1 -0.40309,-0.008 l -0.002,-0.002 -0.002,-0.002 c -0.0665,-0.0663 -0.13746,-0.12913 -0.2127,-0.18541 -0.0773,-0.0577 -0.15961,-0.10909 -0.24433,-0.15503 -0.0832,-0.0453 -0.16856,-0.0843 -0.25736,-0.11725 l -0.10102,-0.0347 -0.0236,-0.008 a 0.28575073,0.28575073 0 0 1 -0.19657,-0.35161 0.28575073,0.28575073 0 0 1 0.25549,-0.20836 z m -1.01947,0.81609 a 0.24288842,0.24288842 0 0 1 0.23688,0.17612 0.24288842,0.24288842 0 0 1 -0.16619,0.30013 l -0.008,0.002 -0.008,0.002 c -0.0527,0.0168 -0.10451,0.0374 -0.15442,0.0614 -0.0663,0.032 -0.12841,0.0698 -0.18542,0.11221 a 0.24288842,0.24288842 0 0 1 -0.33983,-0.049 0.24288842,0.24288842 0 0 1 0.0495,-0.33983 c 0.0838,-0.0623 0.17324,-0.11508 0.26481,-0.15937 0.0735,-0.0356 0.14896,-0.0675 0.22696,-0.0917 h 0.004 l 0.0143,-0.004 a 0.24288842,0.24288842 0 0 1 0.0633,-0.01 z m 0.95621,0.0446 a 0.24288842,0.24288842 0 0 1 0.0887,0.0187 l 0.0186,0.008 h 0.002 c 0.0748,0.0315 0.14656,0.07 0.21581,0.1122 0.0687,0.0418 0.13453,0.0872 0.19658,0.13829 l 0.002,0.002 0.0422,0.0372 a 0.24288842,0.24288842 0 0 1 0.0261,0.3423 0.24288842,0.24288842 0 0 1 -0.34231,0.0261 l -0.0372,-0.0328 c -0.044,-0.0363 -0.0896,-0.069 -0.13826,-0.0986 -0.047,-0.0286 -0.0971,-0.0558 -0.14759,-0.0776 l -0.0168,-0.008 a 0.24288842,0.24288842 0 0 1 -0.13829,-0.3144 0.24288842,0.24288842 0 0 1 0.22758,-0.15442 z m -2.69813,0.52896 a 0.28575073,0.28575073 0 0 1 0.0961,0.0217 0.28575073,0.28575073 0 0 1 0.15937,0.37021 l -0.002,0.01 -0.0328,0.0917 -0.0254,0.0961 -0.0236,0.0961 -0.0168,0.098 -0.0137,0.10102 -0.008,0.10047 -0.002,0.10353 c 0,9.9e-4 -1e-5,9.9e-4 0,0.002 v 0.004 c 4.7e-4,0.0939 0.008,0.18601 0.0211,0.27408 a 0.28575073,0.28575073 0 0 1 -0.24122,0.32619 0.28575073,0.28575073 0 0 1 -0.32557,-0.24123 c -0.0185,-0.12337 -0.0259,-0.24398 -0.0261,-0.36339 v -0.004 l 0.004,-0.12899 0.01,-0.13147 0.0167,-0.12836 0.0211,-0.12712 0.0303,-0.12402 0.0352,-0.12155 0.0397,-0.11964 0.01,-0.0236 a 0.28575073,0.28575073 0 0 1 0.2747,-0.18045 z m 4.31043,0.16309 a 0.28575073,0.28575073 0 0 1 0.28837,0.20278 c 0.0345,0.1122 0.058,0.22312 0.075,0.33053 v 0.004 l 0.0167,0.12403 0.01,0.13146 0.004,0.12403 a 0.28575073,0.28575073 0 0 1 0,0.008 0.28575073,0.28575073 0 0 1 0,0.002 0.28575073,0.28575073 0 0 1 0,0.004 l -0.004,0.12649 -0.01,0.12899 -0.0167,0.12898 -0.0211,0.12651 -0.0303,0.12402 -0.0353,0.12464 -0.0372,0.11472 -0.002,0.004 c -0.0431,0.1176 -0.0947,0.2299 -0.15441,0.33983 v 0.004 l -0.008,0.01 a 0.28575073,0.28575073 0 0 1 -0.38882,0.10549 0.28575073,0.28575073 0 0 1 -0.10539,-0.3913 l 0.002,-0.008 c 0.0437,-0.0813 0.0832,-0.16411 0.11532,-0.25051 l 0.0347,-0.10102 0.0261,-0.0936 0.0236,-0.0986 0.0161,-0.098 0.0123,-0.0986 0.01,-0.10299 0.002,-0.0961 v -0.0143 a 0.28575073,0.28575073 0 0 1 0,-0.004 l -0.002,-0.0912 -0.01,-0.10102 -0.0123,-0.098 c -0.0141,-0.0891 -0.0324,-0.17551 -0.0564,-0.25363 a 0.28575073,0.28575073 0 0 1 0.19038,-0.35595 0.28575073,0.28575073 0 0 1 0.054,-0.012 v -6.1e-4 a 0.28575073,0.28575073 0 0 1 0.0136,-9.9e-4 z m -2.20327,0.12837 c 0.42374,0 0.77143,0.34708 0.77143,0.77081 0,0.42373 -0.34769,0.77328 -0.77143,0.77328 -0.42374,0 -0.77329,-0.34955 -0.77329,-0.77328 0,-0.42373 0.34955,-0.77081 0.77329,-0.77081 z m -1.33388,0.1389 a 0.24288842,0.24288842 0 0 1 0.0688,0.009 0.24288842,0.24288842 0 0 1 0.16867,0.29952 l -0.002,0.002 -0.0123,0.0564 -0.012,0.0589 -0.008,0.0609 -0.004,0.0584 c -8e-5,0.002 7e-5,0.003 0,0.004 v 0.002 c -0.002,0.0531 -0.002,0.10222 0.002,0.14759 a 0.24288842,0.24288842 0 0 1 -0.21765,0.2648 0.24288842,0.24288842 0 0 1 -0.2648,-0.21766 c -0.008,-0.0787 -0.009,-0.1543 -0.004,-0.2251 v -0.002 l 0.008,-0.0818 0.01,-0.085 0.0168,-0.0818 0.0185,-0.0818 0.002,-0.0143 a 0.24288842,0.24288842 0 0 1 0.21085,-0.17363 h 6e-4 a 0.24288842,0.24288842 0 0 1 0.0197,-9.9e-4 z m 2.78247,0.13209 a 0.24288842,0.24288842 0 0 1 0.25054,0.20029 l 0.002,0.0211 0.012,0.0843 0.008,0.0843 0.002,0.0793 a 0.24288842,0.24288842 0 0 1 0,0.004 0.24288842,0.24288842 0 0 1 0,0.008 l -0.002,0.0793 -0.008,0.0843 -0.012,0.0843 -0.0143,0.0825 -0.0185,0.0818 -0.0211,0.08 -0.0211,0.0557 a 0.24288842,0.24288842 0 0 1 -0.30696,0.15256 0.24288842,0.24288842 0 0 1 -0.15254,-0.30697 l 0.0168,-0.0471 0.0137,-0.0564 0.0143,-0.0557 0.01,-0.0589 0.01,-0.0608 0.004,-0.0589 v -0.0558 -0.0123 -0.0557 l -0.004,-0.0589 -0.01,-0.0609 v -0.008 a 0.24288842,0.24288842 0 0 1 0.19659,-0.28338 0.24288842,0.24288842 0 0 1 0.0161,-0.002 0.24288842,0.24288842 0 0 1 0.0143,-6.1e-4 z m -1.44859,0.1296 c -0.20753,0 -0.37269,0.16269 -0.37269,0.37022 0,0.20753 0.16516,0.37268 0.37269,0.37268 0.20753,0 0.37084,-0.16515 0.37084,-0.37268 0,-0.20753 -0.16331,-0.37022 -0.37084,-0.37022 z m -0.99716,1.08831 a 0.24288842,0.24288842 0 0 1 0.18852,0.0764 l 0.0211,0.0186 0.0446,0.0446 c 0.0404,0.0362 0.0841,0.0707 0.12897,0.10102 h 0.002 c 0.0428,0.0286 0.0826,0.0537 0.12156,0.0725 a 0.24288842,0.24288842 0 0 1 0.1128,0.32557 0.24288842,0.24288842 0 0 1 -0.32619,0.1104 c -0.0668,-0.0325 -0.12561,-0.0687 -0.18046,-0.10539 -0.0666,-0.0449 -0.13036,-0.096 -0.18976,-0.15006 h -0.002 l -0.0564,-0.0541 -0.028,-0.028 a 0.24288842,0.24288842 0 0 1 0.01,-0.34478 0.24288842,0.24288842 0 0 1 0.13582,-0.0658 0.24288842,0.24288842 0 0 1 0.0174,-0.001 z m 1.78285,0.23192 a 0.24288842,0.24288842 0 0 1 0.21828,0.1116 0.24288842,0.24288842 0 0 1 -0.075,0.33486 l -0.01,0.008 h -0.002 c -0.0693,0.042 -0.14043,0.0806 -0.21519,0.11219 h -0.002 l -0.0727,0.0286 -0.08,0.0279 -0.0776,0.0211 -0.0652,0.0161 a 0.24288842,0.24288842 0 0 1 -0.29084,-0.18231 0.24288842,0.24288842 0 0 1 0.18293,-0.29082 l 0.0515,-0.0143 0.0564,-0.0137 0.0541,-0.0186 0.0532,-0.0217 c 0.0528,-0.0224 0.10593,-0.0494 0.15503,-0.0793 a 0.24288842,0.24288842 0 0 1 0.10298,-0.0372 l 6.5e-4,-6.4e-4 a 0.24288842,0.24288842 0 0 1 0.0161,-9.9e-4 z m -2.60637,0.15875 a 0.28575073,0.28575073 0 0 1 0.0254,0 0.28575073,0.28575073 0 0 1 0.21334,0.11041 l 0.0633,0.0793 0.0633,0.0727 c 9.9e-4,9.9e-4 0.003,9.9e-4 0.004,0.002 v 0.002 c 0.0634,0.0693 0.13165,0.13497 0.20401,0.19473 0.0739,0.061 0.15033,0.11652 0.23193,0.16618 h 0.002 c 0.0708,0.0421 0.13641,0.0782 0.19905,0.10549 a 0.28575073,0.28575073 0 0 1 0.15007,0.37766 0.28575073,0.28575073 0 0 1 -0.37703,0.14758 c -0.099,-0.0428 -0.18711,-0.093 -0.26727,-0.14077 h -0.002 c -0.10571,-0.0644 -0.20722,-0.13706 -0.30262,-0.21579 -0.0951,-0.0785 -0.18423,-0.16417 -0.26727,-0.25549 l -0.002,-0.002 -0.077,-0.0912 -0.0725,-0.0912 a 0.28575073,0.28575073 0 0 1 0.049,-0.40122 0.28575073,0.28575073 0 0 1 0.16185,-0.0609 z m 3.08324,0.55502 a 0.28575073,0.28575073 0 0 1 0.23564,0.12711 0.28575073,0.28575073 0 0 1 -0.08,0.39627 c -0.0926,0.0621 -0.18597,0.11255 -0.27656,0.15689 h -0.002 c -0.11315,0.0545 -0.22966,0.10091 -0.34974,0.13828 l -0.004,0.002 -0.11724,0.0328 -0.12711,0.0278 -0.12651,0.0236 -0.12651,0.0161 -0.0793,0.004 a 0.28575073,0.28575073 0 0 1 -0.30694,-0.2623 0.28575073,0.28575073 0 0 1 0.2623,-0.30696 l 0.0657,-0.004 0.10047,-0.012 0.0986,-0.0192 0.0961,-0.0211 0.0936,-0.028 c 0.0931,-0.0291 0.18428,-0.063 0.27224,-0.10538 0.0771,-0.0376 0.1482,-0.0778 0.21084,-0.11964 a 0.28575073,0.28575073 0 0 1 0.14264,-0.0466 h 6.3e-4 a 0.28575073,0.28575073 0 0 1 0.0175,-6.3e-4 z" />
  </g>
</svg>
